<svg width="22" height="17" viewBox="0 0 22 17" fill="none" xmlns="http://www.w3.org/2000/svg">
<path d="M20.5 3.25V13.75C20.5 14.9926 19.4926 16 18.25 16H3.25C2.00736 16 1 14.9926 1 13.75V3.25M20.5 3.25C20.5 2.00736 19.4926 1 18.25 1H3.25C2.00736 1 1 2.00736 1 3.25M20.5 3.25V3.49271C20.5 4.27405 20.0947 4.99945 19.4292 5.40894L11.9292 10.0243C11.2061 10.4694 10.2939 10.4694 9.57078 10.0243L2.07078 5.40894C1.40535 4.99945 1 4.27405 1 3.49271V3.25" stroke="#FFF323" stroke-width="1.5" stroke-linecap="round" stroke-linejoin="round"/>
</svg>
