<svg width="800" height="800" viewBox="0 0 800 800" fill="none" xmlns="http://www.w3.org/2000/svg">
<g clip-path="url(#clip0_134_184)">
<path d="M760.002 0C742.377 0 727.815 11 723.002 27L555.002 467L649.502 501L800.002 45C801.627 37 800.19 28.875 797.002 22.5C792.19 12.875 784.127 6.1875 774.502 3C769.69 1.375 764.815 0 760.002 0ZM257.502 65.5C207.877 65.5 163.19 91.375 136.002 133C126.377 133 120.002 134.312 112.002 137.5L134.502 163C139.315 161.375 142.19 161.625 147.002 160H155.002L158.502 153.5C177.69 118.312 216.002 96 256.002 96C307.19 96 352.19 131.375 365.002 181L368.002 193.5H384.002C414.377 193.5 438.502 214.312 446.502 241.5H480.002C472.002 198.312 436.69 164.688 393.502 161.5C372.69 103.875 319.877 65.5 257.502 65.5ZM35.0021 95C31.0021 94.625 26.5021 95.8125 22.5021 99C14.5021 105.375 14.1896 115.125 19.0021 121.5L63.0021 175C47.6896 193.312 36.8771 215.312 33.5021 240H65.5021C68.3146 225.062 74.5646 211.312 83.0021 199.5L226.002 373C224.627 376.375 224.002 380 224.002 384C224.002 401.625 238.377 416 256.002 416C273.627 416 288.002 401.625 288.002 384C288.002 366.375 273.627 352 256.002 352C254.627 352 253.315 352.312 252.002 352.5L45.0021 101C42.6271 97.8125 39.0021 95.375 35.0021 95ZM16.0021 256C11.1896 256 6.18958 257.812 3.00208 261C-0.185423 265.812 0.00207758 270.188 0.00207758 275L80.0021 787C81.6271 793.375 88.0021 800 96.0021 800H368.002C332.815 772.812 320.002 734.188 320.002 699C320.002 596.625 411.315 526.375 478.502 488L512.002 275C512.002 270.188 512.19 265.688 509.002 262.5C505.815 257.688 500.815 256 496.002 256H213.002L265.502 321.5C295.877 326.312 320.002 353.625 320.002 384C320.002 419.188 291.19 448 256.002 448C220.815 448 192.002 419.188 192.002 384V382.5L88.0021 256H16.0021ZM536.002 494.5C483.19 518.5 352.002 590.188 352.002 699C352.002 702 352.252 705 352.502 708C352.69 710.125 352.69 712.375 353.002 714.5C353.127 715.438 353.315 716.562 353.502 717.5C353.877 719.438 354.502 721.562 355.002 723.5C356.94 731.25 359.94 738.688 364.002 746C364.377 746.688 364.627 747.375 365.002 748C366.252 750.062 367.565 752 369.002 754C370.002 755.375 370.94 756.688 372.002 758C372.502 758.625 372.94 759.375 373.502 760C375.565 762.438 378.065 764.75 380.502 767C400.502 786.312 431.877 800 478.502 800C460.877 787.188 446.377 771.188 440.002 752C416.002 692.812 457.502 627.125 481.502 601.5C487.877 595.125 497.627 595.125 504.002 601.5C510.377 607.875 510.377 617.625 504.002 624C480.002 648 451.377 699.375 469.002 741C480.19 768.188 508.69 787.188 553.502 800H592.002C566.377 785.625 550.627 769.375 541.002 755C525.002 729.375 520.002 700.812 528.002 672C531.19 664 539.002 659.375 547.002 661C555.002 662.625 560.127 672 558.502 680C555.315 691.188 552.002 712 568.002 736C584.002 758.375 621.002 788.875 709.002 798.5H784.002C792.002 798.5 798.377 792 800.002 784C800.002 777.625 795.002 769.625 787.002 768C785.377 768 678.502 742.312 638.502 665.5C617.69 627.125 638.502 531 638.502 531H637.002L541.002 496L536.002 494.5Z" fill="#6558B1" fill-opacity="0.24"/>
</g>
<defs>
<clipPath id="clip0_134_184">
<rect width="800" height="800" fill="white"/>
</clipPath>
</defs>
</svg>
