<svg width="1153" height="1056" viewBox="0 0 1153 1056" fill="none" xmlns="http://www.w3.org/2000/svg">
<path d="M227.568 411.701C231.934 415.564 237.971 416.957 243.77 415.781C249.505 414.643 254.495 410.672 257.097 405.395C258.07 403.417 268.704 384.827 304.15 388.08C349.698 392.219 379.385 412.738 379.679 412.923C382.96 415.238 386.766 416.39 390.558 416.39C395.138 416.39 399.687 414.716 403.29 411.442L516.222 307.923C522.409 302.233 524.09 293.143 520.339 285.614L472.995 190.953C522.237 107.596 621.152 100.932 651.059 100.932C654.988 100.932 657.306 101.062 658.924 101.118L682.451 100.932C690.189 100.876 697.101 96.072 699.874 88.8448C702.675 81.6141 700.722 73.452 695.007 68.2136C645.558 22.9526 584.043 0 512.097 0C368.652 0 220.134 94.9374 190.017 158.96C154.382 234.684 109.489 280.267 109.02 280.737C105.371 284.41 103.375 289.448 103.54 294.631C103.718 299.823 106.015 304.715 109.93 308.161L227.568 411.701Z" fill="#6558B1" fill-opacity="0.24"/>
<path d="M133.657 534.137C137.085 537.039 141.412 538.618 145.852 538.618C146.406 538.618 146.962 538.601 147.509 538.545C152.551 538.107 157.187 535.663 160.384 531.759L226.262 451.766C232.722 443.937 231.812 432.42 224.21 425.704L101.866 317.475C98.1369 314.155 93.3012 312.576 88.238 312.786C83.2273 313.108 78.5877 315.377 75.2858 319.128L4.70508 399.131C1.3576 402.895 -0.323146 407.881 0.0515194 412.909C0.412179 417.955 2.78273 422.619 6.62392 425.893L133.657 534.137Z" fill="#6558B1" fill-opacity="0.24"/>
<path d="M1148.42 877.624C1147.42 875.306 1145.99 873.251 1144.17 871.486L822.499 562.905L691.52 435.081L961.37 185.631L974.858 199.126C978.394 202.663 983.188 204.641 988.171 204.641C988.423 204.641 988.703 204.641 988.962 204.623C994.218 204.403 999.145 201.987 1002.55 197.96L1102.06 80.1574C1105.33 76.2777 1106.91 71.2494 1106.42 66.2247C1105.94 61.1615 1103.43 56.5289 1099.51 53.346L1062.65 23.6249C1055.78 18.11 1045.98 18.0539 1039.07 23.5689L922.293 116.98C918.119 120.338 915.563 125.306 915.272 130.65C914.96 135.997 916.96 141.228 920.748 145.013L934.737 158.998L664.533 408.771L564.879 311.515C557.876 304.68 546.727 304.375 539.377 310.797L409.974 423.733C406.112 427.094 403.794 431.884 403.531 436.958C403.272 442.067 405.09 447.046 408.591 450.779L506.225 555.125L493.882 566.543L446.331 518.418C439.429 511.397 428.168 510.967 420.7 517.371L9.46731 870.786C7.30685 872.68 5.57008 875.016 4.44959 877.624C-9.29748 909.481 10.4127 959.802 53.4818 1002.86C86.2282 1035.63 125.449 1056 155.835 1056C166.274 1056 175.56 1053.68 183.424 1049.14C184.842 1048.34 186.155 1047.32 187.304 1046.16L566.784 666.982C574.099 659.642 574.137 647.79 566.858 640.436L520.308 593.344L531.905 582.626L965.099 1045.74C966.37 1047.06 967.837 1048.24 969.416 1049.16C977.284 1053.72 986.567 1056 997.009 1056C1027.38 1056 1066.6 1035.63 1099.37 1002.87C1142.44 959.802 1162.16 909.481 1148.42 877.624ZM65.8737 910.472C63.2371 910.472 60.6249 909.352 58.7621 907.216C55.3516 903.284 55.7823 897.366 59.725 893.948L405.125 594.738C409.036 591.341 414.992 591.761 418.395 595.697C421.806 599.626 421.375 605.561 417.44 608.965L72.0329 908.168C70.2437 909.716 68.0657 910.472 65.8737 910.472ZM115.288 959.883C112.843 959.883 110.396 958.927 108.551 957.029C104.94 953.317 105.011 947.343 108.743 943.723L434.611 626.469C438.316 622.859 444.258 622.932 447.91 626.651C451.531 630.363 451.447 636.354 447.728 639.957L121.856 957.211C120.029 959 117.658 959.883 115.288 959.883ZM493.689 670.417L171.358 994.748C169.513 996.621 167.103 997.521 164.694 997.521C162.285 997.521 159.897 996.6 158.048 994.782C154.382 991.127 154.361 985.153 158.013 981.477L480.345 657.142C484.021 653.448 489.985 653.448 493.654 657.104C497.317 660.763 497.362 666.719 493.689 670.417Z" fill="#6558B1" fill-opacity="0.24"/>
</svg>
