<svg width="15" height="15" viewBox="0 0 15 15" fill="none" xmlns="http://www.w3.org/2000/svg">
<path fill-rule="evenodd" clip-rule="evenodd" d="M7.26756 14.1997L7.26966 14.2007C7.4175 14.265 7.5 14.25 7.5 14.25C7.5 14.25 7.5825 14.265 7.73093 14.2004L7.73244 14.1997L7.73674 14.1978L7.75036 14.1915C7.76163 14.1863 7.77725 14.1789 7.79693 14.1694C7.83628 14.1505 7.89191 14.1229 7.9615 14.0866C8.10058 14.0141 8.29591 13.9064 8.52874 13.7621C8.99342 13.4741 9.61302 13.037 10.2341 12.4383C11.4766 11.2407 12.75 9.36936 12.75 6.75C12.75 3.85051 10.3995 1.5 7.5 1.5C4.60051 1.5 2.25 3.85051 2.25 6.75C2.25 9.36936 3.52337 11.2407 4.76589 12.4383C5.38698 13.037 6.00658 13.4741 6.47126 13.7621C6.70409 13.9064 6.89942 14.0141 7.0385 14.0866C7.10809 14.1229 7.16372 14.1505 7.20307 14.1694C7.22275 14.1789 7.23837 14.1863 7.24964 14.1915L7.26326 14.1978L7.26756 14.1997ZM7.5 8.4375C8.43198 8.4375 9.1875 7.68198 9.1875 6.75C9.1875 5.81802 8.43198 5.0625 7.5 5.0625C6.56802 5.0625 5.8125 5.81802 5.8125 6.75C5.8125 7.68198 6.56802 8.4375 7.5 8.4375Z" fill="#FFF323"/>
</svg>
