<svg width="22" height="22" viewBox="0 0 22 22" fill="none" xmlns="http://www.w3.org/2000/svg">
<path d="M1 5.5C1 13.7843 7.71573 20.5 16 20.5H18.25C19.4926 20.5 20.5 19.4926 20.5 18.25V16.8784C20.5 16.3621 20.1487 15.9122 19.6479 15.787L15.2247 14.6812C14.7855 14.5714 14.3234 14.7355 14.0518 15.0976L13.0816 16.3912C12.8 16.7666 12.313 16.9327 11.8723 16.7712C8.56539 15.5598 5.94015 12.9346 4.72876 9.62766C4.56734 9.18699 4.73336 8.69998 5.1088 8.4184L6.40242 7.44818C6.76453 7.1766 6.92861 6.71445 6.81883 6.27533L5.71304 1.85215C5.58783 1.35133 5.13785 1 4.62163 1H3.25C2.00736 1 1 2.00736 1 3.25V5.5Z" stroke="#FFF323" stroke-width="1.5" stroke-linecap="round" stroke-linejoin="round"/>
</svg>
